# xmcd
#
# Track frame offsets: 
#        150
#        9262
#        19903
#        37771
#        48587
#        59741
#        73822
#        84645
#        95338
#        108993
#        120776
#        129941
#        140983
#        151191
#        158627
#        170410
#        185379
#        196726
#        207273
#        217980
#
# Disc length: 3122 seconds
#
# Revision: 0
# Processed by: cddbd v1.5.2PL0 Copyright (c) Steve Scherf et al.
# Submitted via: ExactAudioCopy v0.99pb4
#
DISCID=080c3014
DTITLE=Various Artist - Lemon Popsicles And Strawberry Milkshakes: Welcome To
DTITLE=The 60s CD1
DYEAR=2011
DGENRE=Pop
TTITLE0=John Barry Seven Plus Four - Hit And Miss
TTITLE1=Johnny Kidd And The Pirates - Shakin' All Over
TTITLE2=Connie Francis - Mama
TTITLE3=Eddie Cochran - Three Steps To Heaven
TTITLE4=Drifters - Save The Last Dance For Me
TTITLE5=Platters - Harbor Lights
TTITLE6=Billy Fury - A Wonderous Place
TTITLE7=Bobby Rydell - Wild One
TTITLE8=Kenny Rogers - Ruby, Don't Take Your Love To Town
TTITLE9=Johnny Preston - Running Bear
TTITLE10=Avons - We Are Only Young Once
TTITLE11=Roy Orbison - Only The Lonely
TTITLE12=Freddy Cannon - Way Down Yonder In New Orleans
TTITLE13=Marty Wilde - Little Girl
TTITLE14=Frankie Avalon - Why
TTITLE15=Lonnie Donegan - My Old Man's A Dustman
TTITLE16=Emile Ford And The Checkmates - On A Slow Boat To China
TTITLE17=Percy Faith - Theme From A Summer Place
TTITLE18=Brian Hyland - Itsy Bitsy Teenie Weenie Yellow Polka Dot Biki
TTITLE18=ni
TTITLE19=Johnny Cash - A Boy Named Sue
EXTD=
EXTT0=
EXTT1=
EXTT2=
EXTT3=
EXTT4=
EXTT5=
EXTT6=
EXTT7=
EXTT8=
EXTT9=
EXTT10=
EXTT11=
EXTT12=
EXTT13=
EXTT14=
EXTT15=
EXTT16=
EXTT17=
EXTT18=
EXTT19=
PLAYORDER=
